<svg xmlns="http://www.w3.org/2000/svg" width="40" height="40" fill="none" xmlns:v="https://vecta.io/nano"><g clip-path="url(#A)"><path d="M20 40c11.046 0 20-8.954 20-20S31.046 0 20 0 0 8.954 0 20s8.954 20 20 20z" fill="#e1edf4"/><g fill="#1caaff"><path d="M20 33c7.18 0 13-5.82 13-13S27.18 7 20 7 7 12.82 7 20s5.82 13 13 13z"/><path d="M33 20a13.17 13.17 0 0 0-.074-1.386l-5.416-5.416-16.05 1.575.957 9.796 8.405 8.405C27.618 32.549 33 26.903 33 20z"/></g><path d="M27.51 13.198l-16.05 1.575.957 9.796 5.832-.572 2.47 2.599 1.918-3.029 5.832-.572-.957-9.796z" fill="#fff"/></g><defs><clipPath id="A"><path fill="#fff" d="M0 0h40v40H0z"/></clipPath></defs></svg>