<svg xmlns="http://www.w3.org/2000/svg" width="40" height="40" fill="none"><g clip-path="url(#A)"><path d="M20 40c11.046 0 20-8.954 20-20S31.046 0 20 0 0 8.954 0 20s8.954 20 20 20z" fill="#e8e8e8"/><path d="M28.8 21.195a.8.8 0 0 1-.8.791.8.8 0 0 1-.8-.791V14a.8.8 0 0 1 .8-.791.8.8 0 0 1 .8.791v7.195zm-.279 5.008c-.124.106-3.087 2.593-8.521 2.593s-8.397-2.487-8.521-2.593a.8.8 0 0 1-.087-1.128.8.8 0 0 1 1.126-.088c.047.039 2.693 2.209 7.481 2.209 4.848 0 7.453-2.185 7.479-2.207a.8.8 0 0 1 1.318.669.8.8 0 0 1-.277.546zM11.2 14a.8.8 0 0 1 .8-.791.8.8 0 0 1 .8.791v7.195a.8.8 0 0 1-.8.791.8.8 0 0 1-.8-.791V14zm4-1.6a.8.8 0 0 1 .8-.788.8.8 0 0 1 .8.788v10.688a.8.8 0 0 1-.8.788.8.8 0 0 1-.8-.788V12.4zm4-.405a.8.8 0 0 1 .234-.566.8.8 0 0 1 .566-.234.8.8 0 0 1 .566.234.8.8 0 0 1 .234.566v11.6a.8.8 0 0 1-.8.791.8.8 0 0 1-.8-.791v-11.6zm4 .405a.8.8 0 0 1 .8-.788.8.8 0 0 1 .8.788v10.688a.8.8 0 0 1-.8.788.8.8 0 0 1-.8-.788V12.4zM29 8H11a3 3 0 0 0-3 3v18a3 3 0 0 0 3 3h18a3 3 0 0 0 3-3V11a3 3 0 0 0-3-3z" fill="#000"/></g><defs><clipPath id="A"><path fill="#fff" d="M0 0h40v40H0z"/></clipPath></defs></svg>