<svg xmlns="http://www.w3.org/2000/svg" width="40" height="40" fill="none" xmlns:v="https://vecta.io/nano"><g clip-path="url(#A)"><path d="M20 40c11.046 0 20-8.954 20-20S31.046 0 20 0 0 8.954 0 20s8.954 20 20 20z" fill="#1899ff"/><path d="M33 19.038c0 6.649-5.822 12.038-13 12.038a14 14 0 0 1-3.73-.503L11.843 33v-4.59C8.891 26.205 7 22.836 7 19.038 7 12.389 12.822 7 20 7s13 5.392 13 12.038z" fill="#fff"/><path d="M28.227 16l-6.834 7.25-3.182-3.393L12 23.252 18.834 16l3.261 3.393L28.227 16z" fill="#008eff"/></g><defs><clipPath id="A"><path fill="#fff" d="M0 0h40v40H0z"/></clipPath></defs></svg>