<svg xmlns="http://www.w3.org/2000/svg" width="40" height="40" fill="none" xmlns:v="https://vecta.io/nano"><g clip-path="url(#A)"><path d="M20 40c11.046 0 20-8.954 20-20S31.046 0 20 0 0 8.954 0 20s8.954 20 20 20z" fill="#d7e6eb"/><path d="M24.762 6c-2.176-.004-4.284.762-5.949 2.163s-2.782 3.346-3.151 5.491h.002a9.26 9.26 0 0 0-5.494 3.163C8.769 18.485 8 20.594 8 22.772V32h9.25a9.24 9.24 0 0 0 9.084-7.516h-2.031H34v-9.256A9.25 9.25 0 0 0 24.762 6zm-9.236 9.258v.002-.002z" fill="#135eeb"/><path d="M17.269 13.516c-.538.004-1.074.05-1.605.138-.088.529-.134 1.064-.138 1.601a9.23 9.23 0 0 0 .704 3.534c.465 1.12 1.145 2.138 2.003 2.995a9.23 9.23 0 0 0 2.997 2c1.121.463 2.322.702 3.534.701h1.576c.114-.574.169-1.157.167-1.742.002-1.213-.236-2.415-.7-3.536s-1.144-2.139-2.003-2.997-1.878-1.537-2.999-1.999-2.323-.699-3.537-.696v.001z" fill="#0a60ea"/><path d="M24.781 24.484a9.24 9.24 0 0 1-3.537-.697c-1.122-.462-2.142-1.141-3.001-1.998a9.24 9.24 0 0 1-2.008-2.994c-.466-1.12-.707-2.321-.709-3.535a10.06 10.06 0 0 1 .138-1.601c-2.145.374-4.09 1.493-5.492 3.16S8.001 20.594 8 22.772V32h9.25a9.24 9.24 0 0 0 9.084-7.516h-1.552z" fill="#15c2ff"/><path d="M24.762 6c-2.176-.004-4.284.762-5.949 2.163s-2.782 3.346-3.151 5.491c.53-.088 1.066-.135 1.604-.138 1.36-.002 2.704.298 3.935.876a9.23 9.23 0 0 1 3.186 2.47c.867 1.048 1.491 2.275 1.829 3.593s.379 2.694.123 4.03H34v-9.256A9.25 9.25 0 0 0 24.762 6z" fill="#2c82ff"/></g><defs><clipPath id="A"><path fill="#fff" d="M0 0h40v40H0z"/></clipPath></defs></svg>