<svg xmlns="http://www.w3.org/2000/svg" width="40" height="40" fill="none"><g clip-path="url(#A)"><path d="M20 40c11.046 0 20-8.954 20-20S31.046 0 20 0 0 8.954 0 20s8.954 20 20 20z" fill="#e1edff"/><g clip-path="url(#B)" fill="#1569ef"><path d="M32.533 26.08c-1.903-2.181-2.815-5.432-2.815-10.031V13.67a2.87 2.87 0 0 0-2.855-2.855h-2.855V8h-1.903v7.097h1.903v-2.379h2.855c.515 0 .952.436.952.952v2.379c0 4.797.951 8.366 2.934 10.864H13.146a1.44 1.44 0 0 1-1.031-.436c-2.141-2.141-3.211-5.59-3.211-10.467v-2.38c0-.516.436-.952.952-.952h.952v-1.903h-.952A2.87 2.87 0 0 0 7 13.63v16.097a2.87 2.87 0 0 0 2.855 2.855h17.049a2.87 2.87 0 0 0 2.855-2.855v-.952h1.586c.674 0 1.229-.357 1.507-.951s.159-1.269-.278-1.745h-.04zm-4.718 3.687c0 .515-.436.952-.952.952H9.855c-.515 0-.952-.436-.952-.952v-4.441a11.97 11.97 0 0 0 1.863 2.538c.634.634 1.467.952 2.379.952h14.67v.951zM15.049 12.718h4.718v-1.863h-4.718V8h-1.903v7.097h1.903v-2.379zm3.964 10.428c2.656 0 4.996-1.467 6.185-3.846l-1.705-.833c-.833 1.705-2.577 2.775-4.48 2.775s-3.648-1.07-4.48-2.775l-1.705.833c1.189 2.379 3.529 3.846 6.185 3.846z"/></g></g><defs><clipPath id="A"><path fill="#fff" d="M0 0h40v40H0z"/></clipPath><clipPath id="B"><path fill="#fff" transform="translate(7 8)" d="M0 0h26v24.582H0z"/></clipPath></defs></svg>
